<svg viewBox="0 0 102 22" fill="none" xmlns="http://www.w3.org/2000/svg">
	<g transform="translate(51, 11) scale(4) translate(-22.8, -10.95)">
		<path
			d="M28.9758 4.72485C27.9943 4.72485 27.0661 4.95073 26.2407 5.3573C25.2591 5.83779 24.4255 6.5688 23.8177 7.46819C23.7889 7.52569 23.7519 7.57907 23.715 7.62836C23.5055 7.8994 23.177 8.07189 22.8074 8.07189C22.4378 8.07189 22.1215 7.90351 21.9121 7.64478C21.8628 7.58729 21.8218 7.52158 21.7889 7.45176C21.1811 6.56059 20.3474 5.83369 19.3741 5.3573C18.5486 4.95483 17.6205 4.72485 16.639 4.72485C13.2016 4.72485 10.4131 7.51337 10.4131 10.9507C10.4131 14.3881 13.2016 17.1766 16.639 17.1766C18.1749 17.1766 18.5486 16.9508 19.3741 16.5442C20.3392 16.0719 21.1688 15.3532 21.7725 14.4703C21.8176 14.3799 21.871 14.2978 21.9326 14.2239C22.1421 13.9775 22.4583 13.8214 22.8074 13.8214C23.1565 13.8214 23.4809 13.9816 23.6903 14.2362C23.7478 14.3019 23.793 14.3758 23.8341 14.4579C24.4378 15.345 25.2674 16.0678 26.2407 16.5442C27.0661 16.9508 27.9984 17.1766 28.9799 17.1766C32.4173 17.1766 35.2058 14.3881 35.2058 10.9507C35.2058 7.51337 32.4173 4.72485 28.9799 4.72485H28.9758ZM28.9758 14.5442C27.7602 14.5442 26.6842 13.9405 26.0353 13.0124C25.986 12.9425 25.9409 12.8768 25.8998 12.8029C25.2263 11.8419 24.1133 11.2054 22.8526 11.1889C22.8361 11.1889 22.8197 11.1889 22.8033 11.1889C22.7868 11.1889 22.7704 11.1889 22.754 11.1889C21.5055 11.2054 20.4008 11.8255 19.7273 12.7742C19.6739 12.8645 19.6164 12.9508 19.5589 13.0329C18.9059 13.9446 17.8382 14.5401 16.6349 14.5401C14.6513 14.5401 13.0414 12.9261 13.0414 10.9466C13.0414 8.96717 14.6513 7.3532 16.6349 7.3532C18.6185 7.3532 18.9429 7.96922 19.5959 8.90967C19.6287 8.95896 19.6616 9.00824 19.6944 9.05752C20.3679 10.0349 21.4891 10.6797 22.7581 10.6961C22.7745 10.6961 22.791 10.6961 22.8074 10.6961C22.8238 10.6961 22.8402 10.6961 22.8567 10.6961C24.1462 10.6797 25.2838 10.0144 25.9532 9.01234C25.9655 8.99592 25.9778 8.97538 25.9901 8.95896C26.6349 7.99386 27.7355 7.35731 28.9799 7.35731C30.9594 7.35731 32.5733 8.96717 32.5733 10.9507C32.5733 12.9343 30.9594 14.5442 28.9799 14.5442H28.9758Z"
			fill="currentColor"
		/>
	</g>
</svg>