<?xml version="1.0" standalone="no"?>
<!DOCTYPE svg PUBLIC "-//W3C//DTD SVG 20010904//EN"
 "http://www.w3.org/TR/2001/REC-SVG-20010904/DTD/svg10.dtd">
<svg version="1.0" xmlns="http://www.w3.org/2000/svg"
 width="250.000000pt" height="207.000000pt" viewBox="0 0 250.000000 207.000000"
 preserveAspectRatio="xMidYMid meet">
<g transform="translate(0.000000,207.000000) scale(0.100000,-0.100000)"
fill="#fff" stroke="none">
<path d="M2174 1587 c-93 -45 -150 -146 -126 -225 6 -20 36 -66 67 -100 89
-102 98 -131 70 -213 -23 -65 -167 -379 -174 -379 -11 0 -302 664 -301 687 0
25 26 45 85 64 54 18 75 37 75 69 0 61 7 60 -479 60 -491 0 -469 3 -434 -67
13 -29 31 -44 73 -64 30 -15 67 -40 82 -55 14 -16 54 -92 87 -169 l62 -140
-32 -75 c-17 -41 -60 -137 -97 -213 -64 -134 -66 -137 -78 -110 -6 15 -75 174
-153 352 -77 178 -141 331 -141 341 0 23 26 45 82 69 54 23 68 52 46 98 l-13
28 -438 3 -437 2 0 -38 c0 -45 23 -71 90 -100 25 -11 57 -33 71 -48 15 -16
131 -264 264 -559 311 -695 325 -725 364 -758 30 -25 39 -27 125 -27 l92 0
173 373 c96 204 179 378 186 385 9 10 43 -58 161 -328 106 -244 159 -353 185
-383 l37 -42 89 -3 89 -4 271 594 c150 326 279 613 288 637 9 27 15 79 15 139
0 86 -3 100 -25 132 -38 55 -95 82 -179 87 -60 3 -79 0 -122 -20z"/>
</g>
</svg>
